<svg width="420" height="420" viewBox="0 0 420 420" fill="none" xmlns="http://www.w3.org/2000/svg">
<rect width="10" height="10" fill="black"/>
<rect y="10" width="10" height="10" fill="white"/>
<rect y="20" width="10" height="10" fill="black"/>
<rect x="10" width="10" height="10" fill="white"/>
<rect x="10" y="10" width="10" height="10" fill="black"/>
<rect x="10" y="20" width="10" height="10" fill="white"/>
<rect x="20" width="10" height="10" fill="black"/>
<rect x="20" y="10" width="10" height="10" fill="white"/>
<rect x="20" y="20" width="10" height="10" fill="black"/>
<rect x="30" width="10" height="10" fill="white"/>
<rect x="30" y="10" width="10" height="10" fill="black"/>
<rect x="30" y="20" width="10" height="10" fill="white"/>
<rect x="40" width="10" height="10" fill="black"/>
<rect x="40" y="10" width="10" height="10" fill="white"/>
<rect x="40" y="20" width="10" height="10" fill="black"/>
<rect x="50" width="10" height="10" fill="white"/>
<rect x="50" y="10" width="10" height="10" fill="black"/>
<rect x="50" y="20" width="10" height="10" fill="white"/>
<rect x="60" width="10" height="10" fill="black"/>
<rect x="60" y="10" width="10" height="10" fill="white"/>
<rect x="60" y="20" width="10" height="10" fill="black"/>
<rect x="70" width="10" height="10" fill="white"/>
<rect x="70" y="10" width="10" height="10" fill="black"/>
<rect x="70" y="20" width="10" height="10" fill="white"/>
<rect x="80" width="10" height="10" fill="black"/>
<rect x="80" y="10" width="10" height="10" fill="white"/>
<rect x="80" y="20" width="10" height="10" fill="black"/>
<rect x="90" width="10" height="10" fill="white"/>
<rect x="90" y="10" width="10" height="10" fill="black"/>
<rect x="90" y="20" width="10" height="10" fill="white"/>
<rect x="100" width="10" height="10" fill="black"/>
<rect x="100" y="10" width="10" height="10" fill="white"/>
<rect x="100" y="20" width="10" height="10" fill="black"/>
<rect x="110" width="10" height="10" fill="white"/>
<rect x="110" y="10" width="10" height="10" fill="black"/>
<rect x="110" y="20" width="10" height="10" fill="white"/>
<rect x="120" width="10" height="10" fill="black"/>
<rect x="120" y="10" width="10" height="10" fill="white"/>
<rect x="120" y="20" width="10" height="10" fill="black"/>
<rect x="130" width="10" height="10" fill="white"/>
<rect x="130" y="10" width="10" height="10" fill="black"/>
<rect x="130" y="20" width="10" height="10" fill="white"/>
<rect x="140" width="10" height="10" fill="black"/>
<rect x="140" y="10" width="10" height="10" fill="white"/>
<rect x="140" y="20" width="10" height="10" fill="black"/>
<rect x="150" width="10" height="10" fill="white"/>
<rect x="150" y="10" width="10" height="10" fill="black"/>
<rect x="150" y="20" width="10" height="10" fill="white"/>
<rect x="160" width="10" height="10" fill="black"/>
<rect x="160" y="10" width="10" height="10" fill="white"/>
<rect x="160" y="20" width="10" height="10" fill="black"/>
<rect x="170" width="10" height="10" fill="white"/>
<rect x="170" y="10" width="10" height="10" fill="black"/>
<rect x="170" y="20" width="10" height="10" fill="white"/>
<rect x="180" width="10" height="10" fill="black"/>
<rect x="180" y="10" width="10" height="10" fill="white"/>
<rect x="180" y="20" width="10" height="10" fill="black"/>
<rect x="190" width="10" height="10" fill="white"/>
<rect x="190" y="10" width="10" height="10" fill="black"/>
<rect x="190" y="20" width="10" height="10" fill="white"/>
<rect x="200" width="10" height="10" fill="black"/>
<rect x="200" y="10" width="10" height="10" fill="white"/>
<rect x="200" y="20" width="10" height="10" fill="black"/>
<rect x="210" width="10" height="10" fill="white"/>
<rect x="210" y="10" width="10" height="10" fill="black"/>
<rect x="210" y="20" width="10" height="10" fill="white"/>
<rect x="220" width="10" height="10" fill="black"/>
<rect x="220" y="10" width="10" height="10" fill="white"/>
<rect x="220" y="20" width="10" height="10" fill="black"/>
<rect x="230" width="10" height="10" fill="white"/>
<rect x="230" y="10" width="10" height="10" fill="black"/>
<rect x="230" y="20" width="10" height="10" fill="white"/>
<rect x="240" width="10" height="10" fill="black"/>
<rect x="240" y="10" width="10" height="10" fill="white"/>
<rect x="240" y="20" width="10" height="10" fill="black"/>
<rect x="250" width="10" height="10" fill="white"/>
<rect x="250" y="10" width="10" height="10" fill="black"/>
<rect x="250" y="20" width="10" height="10" fill="white"/>
<rect x="260" width="10" height="10" fill="black"/>
<rect x="260" y="10" width="10" height="10" fill="white"/>
<rect x="260" y="20" width="10" height="10" fill="black"/>
<rect x="270" width="10" height="10" fill="white"/>
<rect x="270" y="10" width="10" height="10" fill="black"/>
<rect x="270" y="20" width="10" height="10" fill="white"/>
<rect x="280" width="10" height="10" fill="black"/>
<rect x="280" y="10" width="10" height="10" fill="white"/>
<rect x="280" y="20" width="10" height="10" fill="black"/>
<rect x="290" width="10" height="10" fill="white"/>
<rect x="290" y="10" width="10" height="10" fill="black"/>
<rect x="290" y="20" width="10" height="10" fill="white"/>
<rect x="300" width="10" height="10" fill="black"/>
<rect x="300" y="10" width="10" height="10" fill="white"/>
<rect x="300" y="20" width="10" height="10" fill="black"/>
<rect x="310" width="10" height="10" fill="white"/>
<rect x="310" y="10" width="10" height="10" fill="black"/>
<rect x="310" y="20" width="10" height="10" fill="white"/>
<rect x="320" width="10" height="10" fill="black"/>
<rect x="320" y="10" width="10" height="10" fill="white"/>
<rect x="320" y="20" width="10" height="10" fill="black"/>
<rect x="330" width="10" height="10" fill="white"/>
<rect x="330" y="10" width="10" height="10" fill="black"/>
<rect x="330" y="20" width="10" height="10" fill="white"/>
<rect x="340" width="10" height="10" fill="black"/>
<rect x="340" y="10" width="10" height="10" fill="white"/>
<rect x="340" y="20" width="10" height="10" fill="black"/>
<rect x="350" width="10" height="10" fill="white"/>
<rect x="350" y="10" width="10" height="10" fill="black"/>
<rect x="350" y="20" width="10" height="10" fill="white"/>
<rect x="360" width="10" height="10" fill="black"/>
<rect x="360" y="10" width="10" height="10" fill="white"/>
<rect x="360" y="20" width="10" height="10" fill="black"/>
<rect x="370" width="10" height="10" fill="white"/>
<rect x="370" y="10" width="10" height="10" fill="black"/>
<rect x="370" y="20" width="10" height="10" fill="white"/>
<rect x="380" width="10" height="10" fill="black"/>
<rect x="380" y="10" width="10" height="10" fill="white"/>
<rect x="380" y="20" width="10" height="10" fill="black"/>
<rect x="390" width="10" height="10" fill="white"/>
<rect x="390" y="10" width="10" height="10" fill="black"/>
<rect x="390" y="20" width="10" height="10" fill="white"/>
<rect x="400" width="10" height="10" fill="black"/>
<rect x="400" y="10" width="10" height="10" fill="white"/>
<rect x="400" y="20" width="10" height="10" fill="black"/>
<rect x="410" width="10" height="10" fill="white"/>
<rect x="410" y="10" width="10" height="10" fill="black"/>
<rect x="410" y="20" width="10" height="10" fill="white"/>
<rect x="30" width="10" height="10" transform="rotate(90 30 0)" fill="black"/>
<rect x="20" width="10" height="10" transform="rotate(90 20 0)" fill="white"/>
<rect x="10" width="10" height="10" transform="rotate(90 10 0)" fill="black"/>
<rect x="30" y="10" width="10" height="10" transform="rotate(90 30 10)" fill="white"/>
<rect x="20" y="10" width="10" height="10" transform="rotate(90 20 10)" fill="black"/>
<rect x="10" y="10" width="10" height="10" transform="rotate(90 10 10)" fill="white"/>
<rect x="30" y="20" width="10" height="10" transform="rotate(90 30 20)" fill="black"/>
<rect x="20" y="20" width="10" height="10" transform="rotate(90 20 20)" fill="white"/>
<rect x="10" y="20" width="10" height="10" transform="rotate(90 10 20)" fill="black"/>
<rect x="30" y="30" width="10" height="10" transform="rotate(90 30 30)" fill="white"/>
<rect x="20" y="30" width="10" height="10" transform="rotate(90 20 30)" fill="black"/>
<rect x="10" y="30" width="10" height="10" transform="rotate(90 10 30)" fill="white"/>
<rect x="30" y="40" width="10" height="10" transform="rotate(90 30 40)" fill="black"/>
<rect x="20" y="40" width="10" height="10" transform="rotate(90 20 40)" fill="white"/>
<rect x="10" y="40" width="10" height="10" transform="rotate(90 10 40)" fill="black"/>
<rect x="30" y="50" width="10" height="10" transform="rotate(90 30 50)" fill="white"/>
<rect x="20" y="50" width="10" height="10" transform="rotate(90 20 50)" fill="black"/>
<rect x="10" y="50" width="10" height="10" transform="rotate(90 10 50)" fill="white"/>
<rect x="30" y="60" width="10" height="10" transform="rotate(90 30 60)" fill="black"/>
<rect x="20" y="60" width="10" height="10" transform="rotate(90 20 60)" fill="white"/>
<rect x="10" y="60" width="10" height="10" transform="rotate(90 10 60)" fill="black"/>
<rect x="30" y="70" width="10" height="10" transform="rotate(90 30 70)" fill="white"/>
<rect x="20" y="70" width="10" height="10" transform="rotate(90 20 70)" fill="black"/>
<rect x="10" y="70" width="10" height="10" transform="rotate(90 10 70)" fill="white"/>
<rect x="30" y="80" width="10" height="10" transform="rotate(90 30 80)" fill="black"/>
<rect x="20" y="80" width="10" height="10" transform="rotate(90 20 80)" fill="white"/>
<rect x="10" y="80" width="10" height="10" transform="rotate(90 10 80)" fill="black"/>
<rect x="30" y="90" width="10" height="10" transform="rotate(90 30 90)" fill="white"/>
<rect x="20" y="90" width="10" height="10" transform="rotate(90 20 90)" fill="black"/>
<rect x="10" y="90" width="10" height="10" transform="rotate(90 10 90)" fill="white"/>
<rect x="30" y="100" width="10" height="10" transform="rotate(90 30 100)" fill="black"/>
<rect x="20" y="100" width="10" height="10" transform="rotate(90 20 100)" fill="white"/>
<rect x="10" y="100" width="10" height="10" transform="rotate(90 10 100)" fill="black"/>
<rect x="30" y="110" width="10" height="10" transform="rotate(90 30 110)" fill="white"/>
<rect x="20" y="110" width="10" height="10" transform="rotate(90 20 110)" fill="black"/>
<rect x="10" y="110" width="10" height="10" transform="rotate(90 10 110)" fill="white"/>
<rect x="30" y="120" width="10" height="10" transform="rotate(90 30 120)" fill="black"/>
<rect x="20" y="120" width="10" height="10" transform="rotate(90 20 120)" fill="white"/>
<rect x="10" y="120" width="10" height="10" transform="rotate(90 10 120)" fill="black"/>
<rect x="30" y="130" width="10" height="10" transform="rotate(90 30 130)" fill="white"/>
<rect x="20" y="130" width="10" height="10" transform="rotate(90 20 130)" fill="black"/>
<rect x="10" y="130" width="10" height="10" transform="rotate(90 10 130)" fill="white"/>
<rect x="30" y="140" width="10" height="10" transform="rotate(90 30 140)" fill="black"/>
<rect x="20" y="140" width="10" height="10" transform="rotate(90 20 140)" fill="white"/>
<rect x="10" y="140" width="10" height="10" transform="rotate(90 10 140)" fill="black"/>
<rect x="30" y="150" width="10" height="10" transform="rotate(90 30 150)" fill="white"/>
<rect x="20" y="150" width="10" height="10" transform="rotate(90 20 150)" fill="black"/>
<rect x="10" y="150" width="10" height="10" transform="rotate(90 10 150)" fill="white"/>
<rect x="30" y="160" width="10" height="10" transform="rotate(90 30 160)" fill="black"/>
<rect x="20" y="160" width="10" height="10" transform="rotate(90 20 160)" fill="white"/>
<rect x="10" y="160" width="10" height="10" transform="rotate(90 10 160)" fill="black"/>
<rect x="30" y="170" width="10" height="10" transform="rotate(90 30 170)" fill="white"/>
<rect x="20" y="170" width="10" height="10" transform="rotate(90 20 170)" fill="black"/>
<rect x="10" y="170" width="10" height="10" transform="rotate(90 10 170)" fill="white"/>
<rect x="30" y="180" width="10" height="10" transform="rotate(90 30 180)" fill="black"/>
<rect x="20" y="180" width="10" height="10" transform="rotate(90 20 180)" fill="white"/>
<rect x="10" y="180" width="10" height="10" transform="rotate(90 10 180)" fill="black"/>
<rect x="30" y="190" width="10" height="10" transform="rotate(90 30 190)" fill="white"/>
<rect x="20" y="190" width="10" height="10" transform="rotate(90 20 190)" fill="black"/>
<rect x="10" y="190" width="10" height="10" transform="rotate(90 10 190)" fill="white"/>
<rect x="30" y="200" width="10" height="10" transform="rotate(90 30 200)" fill="black"/>
<rect x="20" y="200" width="10" height="10" transform="rotate(90 20 200)" fill="white"/>
<rect x="10" y="200" width="10" height="10" transform="rotate(90 10 200)" fill="black"/>
<rect x="30" y="210" width="10" height="10" transform="rotate(90 30 210)" fill="white"/>
<rect x="20" y="210" width="10" height="10" transform="rotate(90 20 210)" fill="black"/>
<rect x="10" y="210" width="10" height="10" transform="rotate(90 10 210)" fill="white"/>
<rect x="30" y="220" width="10" height="10" transform="rotate(90 30 220)" fill="black"/>
<rect x="20" y="220" width="10" height="10" transform="rotate(90 20 220)" fill="white"/>
<rect x="10" y="220" width="10" height="10" transform="rotate(90 10 220)" fill="black"/>
<rect x="30" y="230" width="10" height="10" transform="rotate(90 30 230)" fill="white"/>
<rect x="20" y="230" width="10" height="10" transform="rotate(90 20 230)" fill="black"/>
<rect x="10" y="230" width="10" height="10" transform="rotate(90 10 230)" fill="white"/>
<rect x="30" y="240" width="10" height="10" transform="rotate(90 30 240)" fill="black"/>
<rect x="20" y="240" width="10" height="10" transform="rotate(90 20 240)" fill="white"/>
<rect x="10" y="240" width="10" height="10" transform="rotate(90 10 240)" fill="black"/>
<rect x="30" y="250" width="10" height="10" transform="rotate(90 30 250)" fill="white"/>
<rect x="20" y="250" width="10" height="10" transform="rotate(90 20 250)" fill="black"/>
<rect x="10" y="250" width="10" height="10" transform="rotate(90 10 250)" fill="white"/>
<rect x="30" y="260" width="10" height="10" transform="rotate(90 30 260)" fill="black"/>
<rect x="20" y="260" width="10" height="10" transform="rotate(90 20 260)" fill="white"/>
<rect x="10" y="260" width="10" height="10" transform="rotate(90 10 260)" fill="black"/>
<rect x="30" y="270" width="10" height="10" transform="rotate(90 30 270)" fill="white"/>
<rect x="20" y="270" width="10" height="10" transform="rotate(90 20 270)" fill="black"/>
<rect x="10" y="270" width="10" height="10" transform="rotate(90 10 270)" fill="white"/>
<rect x="30" y="280" width="10" height="10" transform="rotate(90 30 280)" fill="black"/>
<rect x="20" y="280" width="10" height="10" transform="rotate(90 20 280)" fill="white"/>
<rect x="10" y="280" width="10" height="10" transform="rotate(90 10 280)" fill="black"/>
<rect x="30" y="290" width="10" height="10" transform="rotate(90 30 290)" fill="white"/>
<rect x="20" y="290" width="10" height="10" transform="rotate(90 20 290)" fill="black"/>
<rect x="10" y="290" width="10" height="10" transform="rotate(90 10 290)" fill="white"/>
<rect x="30" y="300" width="10" height="10" transform="rotate(90 30 300)" fill="black"/>
<rect x="20" y="300" width="10" height="10" transform="rotate(90 20 300)" fill="white"/>
<rect x="10" y="300" width="10" height="10" transform="rotate(90 10 300)" fill="black"/>
<rect x="30" y="310" width="10" height="10" transform="rotate(90 30 310)" fill="white"/>
<rect x="20" y="310" width="10" height="10" transform="rotate(90 20 310)" fill="black"/>
<rect x="10" y="310" width="10" height="10" transform="rotate(90 10 310)" fill="white"/>
<rect x="30" y="320" width="10" height="10" transform="rotate(90 30 320)" fill="black"/>
<rect x="20" y="320" width="10" height="10" transform="rotate(90 20 320)" fill="white"/>
<rect x="10" y="320" width="10" height="10" transform="rotate(90 10 320)" fill="black"/>
<rect x="30" y="330" width="10" height="10" transform="rotate(90 30 330)" fill="white"/>
<rect x="20" y="330" width="10" height="10" transform="rotate(90 20 330)" fill="black"/>
<rect x="10" y="330" width="10" height="10" transform="rotate(90 10 330)" fill="white"/>
<rect x="30" y="340" width="10" height="10" transform="rotate(90 30 340)" fill="black"/>
<rect x="20" y="340" width="10" height="10" transform="rotate(90 20 340)" fill="white"/>
<rect x="10" y="340" width="10" height="10" transform="rotate(90 10 340)" fill="black"/>
<rect x="30" y="350" width="10" height="10" transform="rotate(90 30 350)" fill="white"/>
<rect x="20" y="350" width="10" height="10" transform="rotate(90 20 350)" fill="black"/>
<rect x="10" y="350" width="10" height="10" transform="rotate(90 10 350)" fill="white"/>
<rect x="30" y="360" width="10" height="10" transform="rotate(90 30 360)" fill="black"/>
<rect x="20" y="360" width="10" height="10" transform="rotate(90 20 360)" fill="white"/>
<rect x="10" y="360" width="10" height="10" transform="rotate(90 10 360)" fill="black"/>
<rect x="30" y="370" width="10" height="10" transform="rotate(90 30 370)" fill="white"/>
<rect x="20" y="370" width="10" height="10" transform="rotate(90 20 370)" fill="black"/>
<rect x="10" y="370" width="10" height="10" transform="rotate(90 10 370)" fill="white"/>
<rect x="30" y="380" width="10" height="10" transform="rotate(90 30 380)" fill="black"/>
<rect x="20" y="380" width="10" height="10" transform="rotate(90 20 380)" fill="white"/>
<rect x="10" y="380" width="10" height="10" transform="rotate(90 10 380)" fill="black"/>
<rect x="30" y="390" width="10" height="10" transform="rotate(90 30 390)" fill="white"/>
<rect x="20" y="390" width="10" height="10" transform="rotate(90 20 390)" fill="black"/>
<rect x="10" y="390" width="10" height="10" transform="rotate(90 10 390)" fill="white"/>
<rect x="30" y="400" width="10" height="10" transform="rotate(90 30 400)" fill="black"/>
<rect x="20" y="400" width="10" height="10" transform="rotate(90 20 400)" fill="white"/>
<rect x="10" y="400" width="10" height="10" transform="rotate(90 10 400)" fill="black"/>
<rect x="30" y="410" width="10" height="10" transform="rotate(90 30 410)" fill="white"/>
<rect x="20" y="410" width="10" height="10" transform="rotate(90 20 410)" fill="black"/>
<rect x="10" y="410" width="10" height="10" transform="rotate(90 10 410)" fill="white"/>
<rect x="390" y="420" width="10" height="10" transform="rotate(-90 390 420)" fill="black"/>
<rect x="400" y="420" width="10" height="10" transform="rotate(-90 400 420)" fill="white"/>
<rect x="410" y="420" width="10" height="10" transform="rotate(-90 410 420)" fill="black"/>
<rect x="390" y="410" width="10" height="10" transform="rotate(-90 390 410)" fill="white"/>
<rect x="400" y="410" width="10" height="10" transform="rotate(-90 400 410)" fill="black"/>
<rect x="410" y="410" width="10" height="10" transform="rotate(-90 410 410)" fill="white"/>
<rect x="390" y="400" width="10" height="10" transform="rotate(-90 390 400)" fill="black"/>
<rect x="400" y="400" width="10" height="10" transform="rotate(-90 400 400)" fill="white"/>
<rect x="410" y="400" width="10" height="10" transform="rotate(-90 410 400)" fill="black"/>
<rect x="390" y="390" width="10" height="10" transform="rotate(-90 390 390)" fill="white"/>
<rect x="400" y="390" width="10" height="10" transform="rotate(-90 400 390)" fill="black"/>
<rect x="410" y="390" width="10" height="10" transform="rotate(-90 410 390)" fill="white"/>
<rect x="390" y="380" width="10" height="10" transform="rotate(-90 390 380)" fill="black"/>
<rect x="400" y="380" width="10" height="10" transform="rotate(-90 400 380)" fill="white"/>
<rect x="410" y="380" width="10" height="10" transform="rotate(-90 410 380)" fill="black"/>
<rect x="390" y="370" width="10" height="10" transform="rotate(-90 390 370)" fill="white"/>
<rect x="400" y="370" width="10" height="10" transform="rotate(-90 400 370)" fill="black"/>
<rect x="410" y="370" width="10" height="10" transform="rotate(-90 410 370)" fill="white"/>
<rect x="390" y="360" width="10" height="10" transform="rotate(-90 390 360)" fill="black"/>
<rect x="400" y="360" width="10" height="10" transform="rotate(-90 400 360)" fill="white"/>
<rect x="410" y="360" width="10" height="10" transform="rotate(-90 410 360)" fill="black"/>
<rect x="390" y="350" width="10" height="10" transform="rotate(-90 390 350)" fill="white"/>
<rect x="400" y="350" width="10" height="10" transform="rotate(-90 400 350)" fill="black"/>
<rect x="410" y="350" width="10" height="10" transform="rotate(-90 410 350)" fill="white"/>
<rect x="390" y="340" width="10" height="10" transform="rotate(-90 390 340)" fill="black"/>
<rect x="400" y="340" width="10" height="10" transform="rotate(-90 400 340)" fill="white"/>
<rect x="410" y="340" width="10" height="10" transform="rotate(-90 410 340)" fill="black"/>
<rect x="390" y="330" width="10" height="10" transform="rotate(-90 390 330)" fill="white"/>
<rect x="400" y="330" width="10" height="10" transform="rotate(-90 400 330)" fill="black"/>
<rect x="410" y="330" width="10" height="10" transform="rotate(-90 410 330)" fill="white"/>
<rect x="390" y="320" width="10" height="10" transform="rotate(-90 390 320)" fill="black"/>
<rect x="400" y="320" width="10" height="10" transform="rotate(-90 400 320)" fill="white"/>
<rect x="410" y="320" width="10" height="10" transform="rotate(-90 410 320)" fill="black"/>
<rect x="390" y="310" width="10" height="10" transform="rotate(-90 390 310)" fill="white"/>
<rect x="400" y="310" width="10" height="10" transform="rotate(-90 400 310)" fill="black"/>
<rect x="410" y="310" width="10" height="10" transform="rotate(-90 410 310)" fill="white"/>
<rect x="390" y="300" width="10" height="10" transform="rotate(-90 390 300)" fill="black"/>
<rect x="400" y="300" width="10" height="10" transform="rotate(-90 400 300)" fill="white"/>
<rect x="410" y="300" width="10" height="10" transform="rotate(-90 410 300)" fill="black"/>
<rect x="390" y="290" width="10" height="10" transform="rotate(-90 390 290)" fill="white"/>
<rect x="400" y="290" width="10" height="10" transform="rotate(-90 400 290)" fill="black"/>
<rect x="410" y="290" width="10" height="10" transform="rotate(-90 410 290)" fill="white"/>
<rect x="390" y="280" width="10" height="10" transform="rotate(-90 390 280)" fill="black"/>
<rect x="400" y="280" width="10" height="10" transform="rotate(-90 400 280)" fill="white"/>
<rect x="410" y="280" width="10" height="10" transform="rotate(-90 410 280)" fill="black"/>
<rect x="390" y="270" width="10" height="10" transform="rotate(-90 390 270)" fill="white"/>
<rect x="400" y="270" width="10" height="10" transform="rotate(-90 400 270)" fill="black"/>
<rect x="410" y="270" width="10" height="10" transform="rotate(-90 410 270)" fill="white"/>
<rect x="390" y="260" width="10" height="10" transform="rotate(-90 390 260)" fill="black"/>
<rect x="400" y="260" width="10" height="10" transform="rotate(-90 400 260)" fill="white"/>
<rect x="410" y="260" width="10" height="10" transform="rotate(-90 410 260)" fill="black"/>
<rect x="390" y="250" width="10" height="10" transform="rotate(-90 390 250)" fill="white"/>
<rect x="400" y="250" width="10" height="10" transform="rotate(-90 400 250)" fill="black"/>
<rect x="410" y="250" width="10" height="10" transform="rotate(-90 410 250)" fill="white"/>
<rect x="390" y="240" width="10" height="10" transform="rotate(-90 390 240)" fill="black"/>
<rect x="400" y="240" width="10" height="10" transform="rotate(-90 400 240)" fill="white"/>
<rect x="410" y="240" width="10" height="10" transform="rotate(-90 410 240)" fill="black"/>
<rect x="390" y="230" width="10" height="10" transform="rotate(-90 390 230)" fill="white"/>
<rect x="400" y="230" width="10" height="10" transform="rotate(-90 400 230)" fill="black"/>
<rect x="410" y="230" width="10" height="10" transform="rotate(-90 410 230)" fill="white"/>
<rect x="390" y="220" width="10" height="10" transform="rotate(-90 390 220)" fill="black"/>
<rect x="400" y="220" width="10" height="10" transform="rotate(-90 400 220)" fill="white"/>
<rect x="410" y="220" width="10" height="10" transform="rotate(-90 410 220)" fill="black"/>
<rect x="390" y="210" width="10" height="10" transform="rotate(-90 390 210)" fill="white"/>
<rect x="400" y="210" width="10" height="10" transform="rotate(-90 400 210)" fill="black"/>
<rect x="410" y="210" width="10" height="10" transform="rotate(-90 410 210)" fill="white"/>
<rect x="390" y="200" width="10" height="10" transform="rotate(-90 390 200)" fill="black"/>
<rect x="400" y="200" width="10" height="10" transform="rotate(-90 400 200)" fill="white"/>
<rect x="410" y="200" width="10" height="10" transform="rotate(-90 410 200)" fill="black"/>
<rect x="390" y="190" width="10" height="10" transform="rotate(-90 390 190)" fill="white"/>
<rect x="400" y="190" width="10" height="10" transform="rotate(-90 400 190)" fill="black"/>
<rect x="410" y="190" width="10" height="10" transform="rotate(-90 410 190)" fill="white"/>
<rect x="390" y="180" width="10" height="10" transform="rotate(-90 390 180)" fill="black"/>
<rect x="400" y="180" width="10" height="10" transform="rotate(-90 400 180)" fill="white"/>
<rect x="410" y="180" width="10" height="10" transform="rotate(-90 410 180)" fill="black"/>
<rect x="390" y="170" width="10" height="10" transform="rotate(-90 390 170)" fill="white"/>
<rect x="400" y="170" width="10" height="10" transform="rotate(-90 400 170)" fill="black"/>
<rect x="410" y="170" width="10" height="10" transform="rotate(-90 410 170)" fill="white"/>
<rect x="390" y="160" width="10" height="10" transform="rotate(-90 390 160)" fill="black"/>
<rect x="400" y="160" width="10" height="10" transform="rotate(-90 400 160)" fill="white"/>
<rect x="410" y="160" width="10" height="10" transform="rotate(-90 410 160)" fill="black"/>
<rect x="390" y="150" width="10" height="10" transform="rotate(-90 390 150)" fill="white"/>
<rect x="400" y="150" width="10" height="10" transform="rotate(-90 400 150)" fill="black"/>
<rect x="410" y="150" width="10" height="10" transform="rotate(-90 410 150)" fill="white"/>
<rect x="390" y="140" width="10" height="10" transform="rotate(-90 390 140)" fill="black"/>
<rect x="400" y="140" width="10" height="10" transform="rotate(-90 400 140)" fill="white"/>
<rect x="410" y="140" width="10" height="10" transform="rotate(-90 410 140)" fill="black"/>
<rect x="390" y="130" width="10" height="10" transform="rotate(-90 390 130)" fill="white"/>
<rect x="400" y="130" width="10" height="10" transform="rotate(-90 400 130)" fill="black"/>
<rect x="410" y="130" width="10" height="10" transform="rotate(-90 410 130)" fill="white"/>
<rect x="390" y="120" width="10" height="10" transform="rotate(-90 390 120)" fill="black"/>
<rect x="400" y="120" width="10" height="10" transform="rotate(-90 400 120)" fill="white"/>
<rect x="410" y="120" width="10" height="10" transform="rotate(-90 410 120)" fill="black"/>
<rect x="390" y="110" width="10" height="10" transform="rotate(-90 390 110)" fill="white"/>
<rect x="400" y="110" width="10" height="10" transform="rotate(-90 400 110)" fill="black"/>
<rect x="410" y="110" width="10" height="10" transform="rotate(-90 410 110)" fill="white"/>
<rect x="390" y="100" width="10" height="10" transform="rotate(-90 390 100)" fill="black"/>
<rect x="400" y="100" width="10" height="10" transform="rotate(-90 400 100)" fill="white"/>
<rect x="410" y="100" width="10" height="10" transform="rotate(-90 410 100)" fill="black"/>
<rect x="390" y="90" width="10" height="10" transform="rotate(-90 390 90)" fill="white"/>
<rect x="400" y="90" width="10" height="10" transform="rotate(-90 400 90)" fill="black"/>
<rect x="410" y="90" width="10" height="10" transform="rotate(-90 410 90)" fill="white"/>
<rect x="390" y="80" width="10" height="10" transform="rotate(-90 390 80)" fill="black"/>
<rect x="400" y="80" width="10" height="10" transform="rotate(-90 400 80)" fill="white"/>
<rect x="410" y="80" width="10" height="10" transform="rotate(-90 410 80)" fill="black"/>
<rect x="390" y="70" width="10" height="10" transform="rotate(-90 390 70)" fill="white"/>
<rect x="400" y="70" width="10" height="10" transform="rotate(-90 400 70)" fill="black"/>
<rect x="410" y="70" width="10" height="10" transform="rotate(-90 410 70)" fill="white"/>
<rect x="390" y="60" width="10" height="10" transform="rotate(-90 390 60)" fill="black"/>
<rect x="400" y="60" width="10" height="10" transform="rotate(-90 400 60)" fill="white"/>
<rect x="410" y="60" width="10" height="10" transform="rotate(-90 410 60)" fill="black"/>
<rect x="390" y="50" width="10" height="10" transform="rotate(-90 390 50)" fill="white"/>
<rect x="400" y="50" width="10" height="10" transform="rotate(-90 400 50)" fill="black"/>
<rect x="410" y="50" width="10" height="10" transform="rotate(-90 410 50)" fill="white"/>
<rect x="390" y="40" width="10" height="10" transform="rotate(-90 390 40)" fill="black"/>
<rect x="400" y="40" width="10" height="10" transform="rotate(-90 400 40)" fill="white"/>
<rect x="410" y="40" width="10" height="10" transform="rotate(-90 410 40)" fill="black"/>
<rect x="390" y="30" width="10" height="10" transform="rotate(-90 390 30)" fill="white"/>
<rect x="400" y="30" width="10" height="10" transform="rotate(-90 400 30)" fill="black"/>
<rect x="410" y="30" width="10" height="10" transform="rotate(-90 410 30)" fill="white"/>
<rect x="390" y="20" width="10" height="10" transform="rotate(-90 390 20)" fill="black"/>
<rect x="400" y="20" width="10" height="10" transform="rotate(-90 400 20)" fill="white"/>
<rect x="410" y="20" width="10" height="10" transform="rotate(-90 410 20)" fill="black"/>
<rect x="390" y="10" width="10" height="10" transform="rotate(-90 390 10)" fill="white"/>
<rect x="400" y="10" width="10" height="10" transform="rotate(-90 400 10)" fill="black"/>
<rect x="410" y="10" width="10" height="10" transform="rotate(-90 410 10)" fill="white"/>
<rect width="10" height="10" transform="matrix(-1 0 0 1 420 390)" fill="black"/>
<rect width="10" height="10" transform="matrix(-1 0 0 1 420 400)" fill="white"/>
<rect width="10" height="10" transform="matrix(-1 0 0 1 420 410)" fill="black"/>
<rect width="10" height="10" transform="matrix(-1 0 0 1 410 390)" fill="white"/>
<rect width="10" height="10" transform="matrix(-1 0 0 1 410 400)" fill="black"/>
<rect width="10" height="10" transform="matrix(-1 0 0 1 410 410)" fill="white"/>
<rect width="10" height="10" transform="matrix(-1 0 0 1 400 390)" fill="black"/>
<rect width="10" height="10" transform="matrix(-1 0 0 1 400 400)" fill="white"/>
<rect width="10" height="10" transform="matrix(-1 0 0 1 400 410)" fill="black"/>
<rect width="10" height="10" transform="matrix(-1 0 0 1 390 390)" fill="white"/>
<rect width="10" height="10" transform="matrix(-1 0 0 1 390 400)" fill="black"/>
<rect width="10" height="10" transform="matrix(-1 0 0 1 390 410)" fill="white"/>
<rect width="10" height="10" transform="matrix(-1 0 0 1 380 390)" fill="black"/>
<rect width="10" height="10" transform="matrix(-1 0 0 1 380 400)" fill="white"/>
<rect width="10" height="10" transform="matrix(-1 0 0 1 380 410)" fill="black"/>
<rect width="10" height="10" transform="matrix(-1 0 0 1 370 390)" fill="white"/>
<rect width="10" height="10" transform="matrix(-1 0 0 1 370 400)" fill="black"/>
<rect width="10" height="10" transform="matrix(-1 0 0 1 370 410)" fill="white"/>
<rect width="10" height="10" transform="matrix(-1 0 0 1 360 390)" fill="black"/>
<rect width="10" height="10" transform="matrix(-1 0 0 1 360 400)" fill="white"/>
<rect width="10" height="10" transform="matrix(-1 0 0 1 360 410)" fill="black"/>
<rect width="10" height="10" transform="matrix(-1 0 0 1 350 390)" fill="white"/>
<rect width="10" height="10" transform="matrix(-1 0 0 1 350 400)" fill="black"/>
<rect width="10" height="10" transform="matrix(-1 0 0 1 350 410)" fill="white"/>
<rect width="10" height="10" transform="matrix(-1 0 0 1 340 390)" fill="black"/>
<rect width="10" height="10" transform="matrix(-1 0 0 1 340 400)" fill="white"/>
<rect width="10" height="10" transform="matrix(-1 0 0 1 340 410)" fill="black"/>
<rect width="10" height="10" transform="matrix(-1 0 0 1 330 390)" fill="white"/>
<rect width="10" height="10" transform="matrix(-1 0 0 1 330 400)" fill="black"/>
<rect width="10" height="10" transform="matrix(-1 0 0 1 330 410)" fill="white"/>
<rect width="10" height="10" transform="matrix(-1 0 0 1 320 390)" fill="black"/>
<rect width="10" height="10" transform="matrix(-1 0 0 1 320 400)" fill="white"/>
<rect width="10" height="10" transform="matrix(-1 0 0 1 320 410)" fill="black"/>
<rect width="10" height="10" transform="matrix(-1 0 0 1 310 390)" fill="white"/>
<rect width="10" height="10" transform="matrix(-1 0 0 1 310 400)" fill="black"/>
<rect width="10" height="10" transform="matrix(-1 0 0 1 310 410)" fill="white"/>
<rect width="10" height="10" transform="matrix(-1 0 0 1 300 390)" fill="black"/>
<rect width="10" height="10" transform="matrix(-1 0 0 1 300 400)" fill="white"/>
<rect width="10" height="10" transform="matrix(-1 0 0 1 300 410)" fill="black"/>
<rect width="10" height="10" transform="matrix(-1 0 0 1 290 390)" fill="white"/>
<rect width="10" height="10" transform="matrix(-1 0 0 1 290 400)" fill="black"/>
<rect width="10" height="10" transform="matrix(-1 0 0 1 290 410)" fill="white"/>
<rect width="10" height="10" transform="matrix(-1 0 0 1 280 390)" fill="black"/>
<rect width="10" height="10" transform="matrix(-1 0 0 1 280 400)" fill="white"/>
<rect width="10" height="10" transform="matrix(-1 0 0 1 280 410)" fill="black"/>
<rect width="10" height="10" transform="matrix(-1 0 0 1 270 390)" fill="white"/>
<rect width="10" height="10" transform="matrix(-1 0 0 1 270 400)" fill="black"/>
<rect width="10" height="10" transform="matrix(-1 0 0 1 270 410)" fill="white"/>
<rect width="10" height="10" transform="matrix(-1 0 0 1 260 390)" fill="black"/>
<rect width="10" height="10" transform="matrix(-1 0 0 1 260 400)" fill="white"/>
<rect width="10" height="10" transform="matrix(-1 0 0 1 260 410)" fill="black"/>
<rect width="10" height="10" transform="matrix(-1 0 0 1 250 390)" fill="white"/>
<rect width="10" height="10" transform="matrix(-1 0 0 1 250 400)" fill="black"/>
<rect width="10" height="10" transform="matrix(-1 0 0 1 250 410)" fill="white"/>
<rect width="10" height="10" transform="matrix(-1 0 0 1 240 390)" fill="black"/>
<rect width="10" height="10" transform="matrix(-1 0 0 1 240 400)" fill="white"/>
<rect width="10" height="10" transform="matrix(-1 0 0 1 240 410)" fill="black"/>
<rect width="10" height="10" transform="matrix(-1 0 0 1 230 390)" fill="white"/>
<rect width="10" height="10" transform="matrix(-1 0 0 1 230 400)" fill="black"/>
<rect width="10" height="10" transform="matrix(-1 0 0 1 230 410)" fill="white"/>
<rect width="10" height="10" transform="matrix(-1 0 0 1 220 390)" fill="black"/>
<rect width="10" height="10" transform="matrix(-1 0 0 1 220 400)" fill="white"/>
<rect width="10" height="10" transform="matrix(-1 0 0 1 220 410)" fill="black"/>
<rect width="10" height="10" transform="matrix(-1 0 0 1 210 390)" fill="white"/>
<rect width="10" height="10" transform="matrix(-1 0 0 1 210 400)" fill="black"/>
<rect width="10" height="10" transform="matrix(-1 0 0 1 210 410)" fill="white"/>
<rect width="10" height="10" transform="matrix(-1 0 0 1 200 390)" fill="black"/>
<rect width="10" height="10" transform="matrix(-1 0 0 1 200 400)" fill="white"/>
<rect width="10" height="10" transform="matrix(-1 0 0 1 200 410)" fill="black"/>
<rect width="10" height="10" transform="matrix(-1 0 0 1 190 390)" fill="white"/>
<rect width="10" height="10" transform="matrix(-1 0 0 1 190 400)" fill="black"/>
<rect width="10" height="10" transform="matrix(-1 0 0 1 190 410)" fill="white"/>
<rect width="10" height="10" transform="matrix(-1 0 0 1 180 390)" fill="black"/>
<rect width="10" height="10" transform="matrix(-1 0 0 1 180 400)" fill="white"/>
<rect width="10" height="10" transform="matrix(-1 0 0 1 180 410)" fill="black"/>
<rect width="10" height="10" transform="matrix(-1 0 0 1 170 390)" fill="white"/>
<rect width="10" height="10" transform="matrix(-1 0 0 1 170 400)" fill="black"/>
<rect width="10" height="10" transform="matrix(-1 0 0 1 170 410)" fill="white"/>
<rect width="10" height="10" transform="matrix(-1 0 0 1 160 390)" fill="black"/>
<rect width="10" height="10" transform="matrix(-1 0 0 1 160 400)" fill="white"/>
<rect width="10" height="10" transform="matrix(-1 0 0 1 160 410)" fill="black"/>
<rect width="10" height="10" transform="matrix(-1 0 0 1 150 390)" fill="white"/>
<rect width="10" height="10" transform="matrix(-1 0 0 1 150 400)" fill="black"/>
<rect width="10" height="10" transform="matrix(-1 0 0 1 150 410)" fill="white"/>
<rect width="10" height="10" transform="matrix(-1 0 0 1 140 390)" fill="black"/>
<rect width="10" height="10" transform="matrix(-1 0 0 1 140 400)" fill="white"/>
<rect width="10" height="10" transform="matrix(-1 0 0 1 140 410)" fill="black"/>
<rect width="10" height="10" transform="matrix(-1 0 0 1 130 390)" fill="white"/>
<rect width="10" height="10" transform="matrix(-1 0 0 1 130 400)" fill="black"/>
<rect width="10" height="10" transform="matrix(-1 0 0 1 130 410)" fill="white"/>
<rect width="10" height="10" transform="matrix(-1 0 0 1 120 390)" fill="black"/>
<rect width="10" height="10" transform="matrix(-1 0 0 1 120 400)" fill="white"/>
<rect width="10" height="10" transform="matrix(-1 0 0 1 120 410)" fill="black"/>
<rect width="10" height="10" transform="matrix(-1 0 0 1 110 390)" fill="white"/>
<rect width="10" height="10" transform="matrix(-1 0 0 1 110 400)" fill="black"/>
<rect width="10" height="10" transform="matrix(-1 0 0 1 110 410)" fill="white"/>
<rect width="10" height="10" transform="matrix(-1 0 0 1 100 390)" fill="black"/>
<rect width="10" height="10" transform="matrix(-1 0 0 1 100 400)" fill="white"/>
<rect width="10" height="10" transform="matrix(-1 0 0 1 100 410)" fill="black"/>
<rect width="10" height="10" transform="matrix(-1 0 0 1 90 390)" fill="white"/>
<rect width="10" height="10" transform="matrix(-1 0 0 1 90 400)" fill="black"/>
<rect width="10" height="10" transform="matrix(-1 0 0 1 90 410)" fill="white"/>
<rect width="10" height="10" transform="matrix(-1 0 0 1 80 390)" fill="black"/>
<rect width="10" height="10" transform="matrix(-1 0 0 1 80 400)" fill="white"/>
<rect width="10" height="10" transform="matrix(-1 0 0 1 80 410)" fill="black"/>
<rect width="10" height="10" transform="matrix(-1 0 0 1 70 390)" fill="white"/>
<rect width="10" height="10" transform="matrix(-1 0 0 1 70 400)" fill="black"/>
<rect width="10" height="10" transform="matrix(-1 0 0 1 70 410)" fill="white"/>
<rect width="10" height="10" transform="matrix(-1 0 0 1 60 390)" fill="black"/>
<rect width="10" height="10" transform="matrix(-1 0 0 1 60 400)" fill="white"/>
<rect width="10" height="10" transform="matrix(-1 0 0 1 60 410)" fill="black"/>
<rect width="10" height="10" transform="matrix(-1 0 0 1 50 390)" fill="white"/>
<rect width="10" height="10" transform="matrix(-1 0 0 1 50 400)" fill="black"/>
<rect width="10" height="10" transform="matrix(-1 0 0 1 50 410)" fill="white"/>
<rect width="10" height="10" transform="matrix(-1 0 0 1 40 390)" fill="black"/>
<rect width="10" height="10" transform="matrix(-1 0 0 1 40 400)" fill="white"/>
<rect width="10" height="10" transform="matrix(-1 0 0 1 40 410)" fill="black"/>
<rect width="10" height="10" transform="matrix(-1 0 0 1 30 390)" fill="white"/>
<rect width="10" height="10" transform="matrix(-1 0 0 1 30 400)" fill="black"/>
<rect width="10" height="10" transform="matrix(-1 0 0 1 30 410)" fill="white"/>
<rect width="10" height="10" transform="matrix(-1 0 0 1 20 390)" fill="black"/>
<rect width="10" height="10" transform="matrix(-1 0 0 1 20 400)" fill="white"/>
<rect width="10" height="10" transform="matrix(-1 0 0 1 20 410)" fill="black"/>
<rect width="10" height="10" transform="matrix(-1 0 0 1 10 390)" fill="white"/>
<rect width="10" height="10" transform="matrix(-1 0 0 1 10 400)" fill="black"/>
<rect width="10" height="10" transform="matrix(-1 0 0 1 10 410)" fill="white"/>
</svg>
